<?xml version="1.0" encoding="UTF-8"?>
<svg id="Calque_1" xmlns="http://www.w3.org/2000/svg" version="1.1" xmlns:xlink="http://www.w3.org/1999/xlink" viewBox="0 0 850.39 566.93">
  <!-- Generator: Adobe Illustrator 30.0.0, SVG Export Plug-In . SVG Version: 2.1.1 Build 123)  -->
  <defs>
    <style>
      .st0 {
        fill: url(#Dégradé_sans_nom_131);
      }

      .st1 {
        fill: url(#Dégradé_sans_nom_133);
      }

      .st2 {
        fill: url(#Dégradé_sans_nom_2083);
      }

      .st3 {
        fill: url(#Dégradé_sans_nom_13);
      }

      .st4 {
        fill: #121b2e;
      }

      .st5 {
        fill: #1f3469;
        font-family: HandelGotD-Bol, 'Handel Gothic D';
        font-size: 97.53px;
        letter-spacing: .03em;
      }

      .st6 {
        fill: #9ca3af;
      }

      .st7 {
        fill: url(#Dégradé_sans_nom_2082);
      }

      .st8 {
        fill: #66696c;
        font-family: Poppins-Regular, Poppins;
        font-size: 29.02px;
        letter-spacing: .19em;
      }

      .st9 {
        fill: url(#Dégradé_sans_nom_208);
      }

      .st10 {
        fill: url(#Dégradé_sans_nom_2081);
      }

      .st11 {
        fill: url(#Dégradé_sans_nom_132);
      }
    </style>
    <linearGradient id="Dégradé_sans_nom_13" data-name="Dégradé sans nom 13" x1="125.07" y1="187.97" x2="125.07" y2="366.1" gradientUnits="userSpaceOnUse">
      <stop offset=".11" stop-color="#e8eff3"/>
      <stop offset="1" stop-color="#58a0d8"/>
    </linearGradient>
    <linearGradient id="Dégradé_sans_nom_131" data-name="Dégradé sans nom 13" x1="147.09" y1="187.97" x2="147.09" y2="366.1" xlink:href="#Dégradé_sans_nom_13"/>
    <linearGradient id="Dégradé_sans_nom_132" data-name="Dégradé sans nom 13" x1="177.68" y1="187.97" x2="177.68" y2="366.1" xlink:href="#Dégradé_sans_nom_13"/>
    <linearGradient id="Dégradé_sans_nom_133" data-name="Dégradé sans nom 13" x1="211" y1="187.97" x2="211" y2="366.1" xlink:href="#Dégradé_sans_nom_13"/>
    <linearGradient id="Dégradé_sans_nom_208" data-name="Dégradé sans nom 208" x1="125.07" y1="-466.43" x2="125.07" y2="-288.3" gradientUnits="userSpaceOnUse">
      <stop offset=".11" stop-color="#e8eff3"/>
      <stop offset=".43" stop-color="#94cad6"/>
      <stop offset="1" stop-color="#2793d2"/>
    </linearGradient>
    <linearGradient id="Dégradé_sans_nom_2081" data-name="Dégradé sans nom 208" x1="147.09" y1="-466.43" x2="147.09" y2="-288.3" xlink:href="#Dégradé_sans_nom_208"/>
    <linearGradient id="Dégradé_sans_nom_2082" data-name="Dégradé sans nom 208" x1="177.68" y1="-466.43" x2="177.68" y2="-288.3" xlink:href="#Dégradé_sans_nom_208"/>
    <linearGradient id="Dégradé_sans_nom_2083" data-name="Dégradé sans nom 208" x1="211" y1="-466.43" x2="211" y2="-288.3" xlink:href="#Dégradé_sans_nom_208"/>
  </defs>
  <g>
    <g>
      <path class="st3" d="M111.21,224.85s-22.31,8.2-22.31,17.3-2.73,54.41,9.11,77.17c11.84,22.76,26.86,35.81,28.68,36.72s22.11-7.53,26.93-9.77c5.51-2.56,7.9-4.19,7.9-4.19,0,0-41.32-21.5-46.37-44.48-4.1-18.67-3.94-72.75-3.94-72.75Z"/>
      <path class="st0" d="M120.31,213.46v63.06c0,9.11,2.73,15.02,8.65,20.26,5.92,5.24,38.02,28.91,38.02,28.91,0,0,1.28,1.54,2.73-1.14.88-1.61,4.62-9.21,4.1-13.66s-4.33-6.6-8.65-9.33c-4.33-2.73-20.94-12.07-21.63-23.9-.68-11.84-.91-71.71-.91-71.71l-22.31,7.51Z"/>
      <path class="st11" d="M151.5,196.62c-.06,18.95,0,69.89,0,75.12s2.96,13.43,12.07,20.03c9.11,6.6,25.04,14.34,25.04,30.5s-16.5,24.74-29.59,31.87c-12.03,6.55-21.63,10.24-21.63,10.24l25.61,15.48s28.34-11.84,42.46-28.91c14.11-17.07,14.57-33.24,9.79-46.67-4.78-13.43-27.77-25.27-33.24-31.87-5.46-6.6-6.83-6.6-6.83-28.91s0-35.2,0-46.89c0-3.8-5.01-9.56-11.84-9.56s-11.83,5.76-11.84,9.56Z"/>
      <path class="st1" d="M183.6,205.95v35.74c0,3.19.68,8.42,7.51,12.52,6.83,4.1,29.99,20.26,36.65,28,6.18,7.18,8.2,13.89,8.2,13.89,0,0,3.19-40.98,2.28-49.17-.91-8.2-.91-11.61-6.6-14.34s-16.62-7.74-16.62-7.74v17.98c0,2.28-1.43,1.14-4.02-.46-2.59-1.59-5.55-3.41-5.55-7.97v-22.54l-21.85-5.92Z"/>
    </g>
    <g>
      <path class="st4" d="M268.37,236.81h13.85v65.06h-13.85v-65.06Z"/>
      <path class="st4" d="M311.58,301.86h-13.17v-65.06h17.65l25.94,48.47v-48.47h13.17v65.06h-16.97l-26.63-47.69v47.69Z"/>
      <path class="st4" d="M423.25,275.04h-38.72v26.82h-13.85v-33.94c.1-16.68,2.24-22.14,10.83-27.5,4.88-2.73,10.53-3.8,19.31-3.61h22.43v11.61h-20.68c-14.04.19-17.56,2.44-18.04,11.51v3.51h38.72v11.61Z"/>
      <path class="st4" d="M449.48,236.81v36.48c.39,10.83.58,11.51,3.22,14.14,2.63,2.24,5.75,2.83,14.24,2.83h13.26v11.61h-14.73c-12.78.2-17.07-.88-22.63-5.17-5.75-5.17-7.12-9.75-7.22-23.41v-36.48h13.85Z"/>
      <path class="st4" d="M513.95,236.81h15.9l26.92,65.06h-16.19l-6.24-15.12h-24.77l-6.24,15.12h-16.29l26.92-65.06ZM512.68,275.14h18.53l-9.27-22.73-9.27,22.73Z"/>
      <path class="st4" d="M566.22,290.26h29.65c4.97,0,7.8-.39,9.46-1.46,2.24-1.27,3.41-3.41,3.41-6.05,0-2.93-1.46-5.56-4-6.83-1.46-.88-4-1.27-7.22-1.27h-12c-7.51,0-12.58-1.27-15.9-4-4.1-3.41-6.53-8.78-6.53-14.63,0-8.1,4.29-15.22,10.73-17.65,3.12-1.17,6.54-1.56,14.53-1.56h32.19v11.61h-29.07c-6.05,0-8.29.19-9.85.98-2.05,1.17-3.22,3.32-3.22,6.24,0,2.54,1.07,4.68,2.93,5.95,1.76,1.07,3.9,1.46,8.97,1.46h10.44c9.36,0,14.34,1.37,18.14,4.97,3.22,3.02,5.27,8.78,5.27,14.73,0,6.73-3.02,12.87-7.8,16.19-3.32,2.24-7.41,2.93-17.46,2.93h-32.67v-11.61Z"/>
      <path class="st4" d="M630.1,236.81h16.19l14.92,25.36,15.8-25.36h16.38l-25.36,37.06v27.99h-13.85v-28.48l-24.09-36.58Z"/>
      <path class="st4" d="M700.42,290.26h29.65c4.97,0,7.8-.39,9.46-1.46,2.24-1.27,3.41-3.41,3.41-6.05,0-2.93-1.46-5.56-4-6.83-1.46-.88-4-1.27-7.22-1.27h-12c-7.51,0-12.58-1.27-15.9-4-4.1-3.41-6.53-8.78-6.53-14.63,0-8.1,4.29-15.22,10.73-17.65,3.12-1.17,6.54-1.56,14.53-1.56h32.19v11.61h-29.07c-6.05,0-8.29.19-9.85.98-2.05,1.17-3.22,3.32-3.22,6.24,0,2.54,1.07,4.68,2.93,5.95,1.76,1.07,3.9,1.46,8.97,1.46h10.44c9.36,0,14.34,1.37,18.14,4.97,3.22,3.02,5.27,8.78,5.27,14.73,0,6.73-3.02,12.87-7.8,16.19-3.32,2.24-7.41,2.93-17.46,2.93h-32.67v-11.61Z"/>
    </g>
    <g>
      <path class="st6" d="M270.77,332.32v6.76h7.37v2.18h-7.37v6.97h8.24v2.18h-10.88v-20.26h10.88v2.18h-8.24Z"/>
      <path class="st6" d="M304.58,350.4h-2.64l-10.62-16.11v16.11h-2.64v-20.26h2.64l10.62,16.08v-16.08h2.64v20.26Z"/>
      <path class="st6" d="M330.06,336.03c-.56-1.18-1.37-2.09-2.44-2.74-1.06-.65-2.3-.97-3.71-.97s-2.69.32-3.82.97c-1.13.65-2.02,1.58-2.67,2.79s-.97,2.61-.97,4.19.32,2.98.97,4.18c.65,1.2,1.54,2.12,2.67,2.77s2.4.97,3.82.97c1.97,0,3.6-.59,4.88-1.77,1.28-1.18,2.02-2.78,2.23-4.79h-8.07v-2.15h10.88v2.03c-.16,1.67-.68,3.19-1.57,4.57-.89,1.38-2.06,2.48-3.51,3.28s-3.07,1.2-4.85,1.2c-1.88,0-3.59-.44-5.14-1.32-1.55-.88-2.77-2.1-3.67-3.67s-1.35-3.34-1.35-5.31.45-3.75,1.35-5.33c.9-1.58,2.12-2.8,3.67-3.69,1.55-.88,3.26-1.32,5.14-1.32,2.15,0,4.05.53,5.7,1.6,1.65,1.06,2.86,2.56,3.61,4.5h-3.16Z"/>
      <path class="st6" d="M345.62,330.17v20.23h-2.64v-20.23h2.64Z"/>
      <path class="st6" d="M371.69,350.4h-2.64l-10.62-16.11v16.11h-2.64v-20.26h2.64l10.62,16.08v-16.08h2.64v20.26Z"/>
      <path class="st6" d="M384.48,332.32v6.76h7.37v2.18h-7.37v6.97h8.24v2.18h-10.88v-20.26h10.88v2.18h-8.24Z"/>
      <path class="st6" d="M405.03,332.32v6.76h7.37v2.18h-7.37v6.97h8.24v2.18h-10.88v-20.26h10.88v2.18h-8.24Z"/>
      <path class="st6" d="M433.59,350.4l-4.82-8.27h-3.19v8.27h-2.64v-20.23h6.53c1.53,0,2.82.26,3.88.78s1.84,1.23,2.37,2.12c.52.89.78,1.91.78,3.05,0,1.39-.4,2.62-1.21,3.69s-2.01,1.77-3.61,2.12l5.08,8.48h-3.16ZM425.58,340.01h3.89c1.43,0,2.51-.35,3.22-1.06.72-.71,1.07-1.65,1.07-2.83s-.35-2.13-1.06-2.79c-.71-.66-1.79-.99-3.24-.99h-3.89v7.66Z"/>
      <path class="st6" d="M448.89,330.17v20.23h-2.64v-20.23h2.64Z"/>
      <path class="st6" d="M474.95,350.4h-2.64l-10.62-16.11v16.11h-2.64v-20.26h2.64l10.62,16.08v-16.08h2.64v20.26Z"/>
      <path class="st6" d="M500.44,336.03c-.56-1.18-1.37-2.09-2.44-2.74-1.06-.65-2.3-.97-3.72-.97s-2.68.32-3.82.97c-1.13.65-2.02,1.58-2.67,2.79-.65,1.21-.97,2.61-.97,4.19s.32,2.98.97,4.18c.65,1.2,1.54,2.12,2.67,2.77s2.4.97,3.82.97c1.97,0,3.6-.59,4.88-1.77,1.28-1.18,2.02-2.78,2.23-4.79h-8.07v-2.15h10.88v2.03c-.16,1.67-.68,3.19-1.57,4.57-.89,1.38-2.06,2.48-3.51,3.28s-3.07,1.2-4.85,1.2c-1.88,0-3.59-.44-5.14-1.32-1.55-.88-2.77-2.1-3.67-3.67s-1.35-3.34-1.35-5.31.45-3.75,1.35-5.33c.9-1.58,2.12-2.8,3.67-3.69,1.55-.88,3.26-1.32,5.14-1.32,2.15,0,4.05.53,5.7,1.6,1.65,1.06,2.86,2.56,3.61,4.5h-3.16Z"/>
      <path class="st6" d="M538.72,345.9h-8.82l-1.62,4.5h-2.79l7.31-20.11h3.05l7.29,20.11h-2.79l-1.62-4.5ZM537.96,343.75l-3.66-10.22-3.66,10.22h7.31Z"/>
      <path class="st6" d="M554.62,330.17v20.23h-2.64v-20.23h2.64Z"/>
      <path class="st6" d="M575.43,350.4l-4.82-8.27h-3.19v8.27h-2.64v-20.23h6.53c1.53,0,2.82.26,3.88.78,1.05.52,1.84,1.23,2.37,2.12.52.89.78,1.91.78,3.05,0,1.39-.4,2.62-1.2,3.69-.8,1.06-2.01,1.77-3.61,2.12l5.08,8.48h-3.16ZM567.42,340.01h3.89c1.43,0,2.51-.35,3.22-1.06.72-.71,1.07-1.65,1.07-2.83s-.35-2.13-1.06-2.79c-.71-.66-1.79-.99-3.24-.99h-3.89v7.66Z"/>
      <path class="st6" d="M604.33,349.89c-1.05-.47-1.88-1.13-2.48-1.97s-.91-1.81-.93-2.92h2.82c.1.95.49,1.75,1.18,2.39.69.65,1.69.97,3,.97s2.25-.31,2.97-.94,1.09-1.44,1.09-2.42c0-.77-.21-1.4-.64-1.89-.43-.48-.96-.85-1.6-1.1-.64-.25-1.5-.52-2.58-.81-1.33-.35-2.4-.7-3.21-1.04-.8-.35-1.49-.89-2.06-1.64-.57-.74-.86-1.75-.86-3,0-1.1.28-2.08.84-2.93.56-.85,1.35-1.51,2.37-1.97,1.02-.46,2.18-.7,3.5-.7,1.9,0,3.45.47,4.66,1.42,1.21.95,1.89,2.21,2.05,3.77h-2.9c-.1-.77-.5-1.46-1.22-2.05-.72-.59-1.67-.89-2.84-.89-1.1,0-2,.29-2.7.86-.7.57-1.04,1.37-1.04,2.39,0,.74.21,1.33.62,1.8.42.46.93.82,1.54,1.06.61.24,1.47.52,2.57.83,1.33.37,2.41.73,3.22,1.09.81.36,1.51.91,2.09,1.65.58.75.87,1.76.87,3.03,0,.99-.26,1.92-.78,2.79-.52.87-1.3,1.58-2.32,2.12s-2.23.81-3.63.81-2.53-.24-3.58-.71Z"/>
      <path class="st6" d="M638.36,330.17l-6.59,12.6v7.63h-2.64v-7.63l-6.62-12.6h2.93l4.99,10.25,4.99-10.25h2.93Z"/>
      <path class="st6" d="M649.63,349.89c-1.05-.47-1.88-1.13-2.48-1.97s-.91-1.81-.93-2.92h2.82c.1.95.49,1.75,1.18,2.39.69.65,1.69.97,3,.97s2.25-.31,2.97-.94,1.09-1.44,1.09-2.42c0-.77-.21-1.4-.64-1.89-.43-.48-.96-.85-1.6-1.1-.64-.25-1.5-.52-2.58-.81-1.33-.35-2.4-.7-3.21-1.04-.8-.35-1.49-.89-2.06-1.64-.57-.74-.86-1.75-.86-3,0-1.1.28-2.08.84-2.93.56-.85,1.35-1.51,2.37-1.97,1.02-.46,2.18-.7,3.5-.7,1.9,0,3.45.47,4.66,1.42,1.21.95,1.89,2.21,2.05,3.77h-2.9c-.1-.77-.5-1.46-1.22-2.05-.72-.59-1.67-.89-2.84-.89-1.1,0-2,.29-2.7.86-.7.57-1.04,1.37-1.04,2.39,0,.74.21,1.33.62,1.8.42.46.93.82,1.54,1.06.61.24,1.47.52,2.57.83,1.33.37,2.41.73,3.22,1.09.81.36,1.51.91,2.09,1.65.58.75.87,1.76.87,3.03,0,.99-.26,1.92-.78,2.79-.52.87-1.3,1.58-2.32,2.12s-2.23.81-3.63.81-2.53-.24-3.58-.71Z"/>
      <path class="st6" d="M681.95,330.17v2.15h-5.51v18.08h-2.64v-18.08h-5.54v-2.15h13.7Z"/>
      <path class="st6" d="M693.5,332.32v6.76h7.37v2.18h-7.37v6.97h8.24v2.18h-10.88v-20.26h10.88v2.18h-8.24Z"/>
      <path class="st6" d="M731.93,330.31v20.08h-2.64v-14.98l-6.68,14.98h-1.86l-6.71-15.01v15.01h-2.64v-20.08h2.84l7.43,16.6,7.43-16.6h2.82Z"/>
      <path class="st6" d="M744.89,349.89c-1.05-.47-1.88-1.13-2.48-1.97s-.91-1.81-.93-2.92h2.82c.1.95.49,1.75,1.18,2.39.69.65,1.69.97,3,.97s2.25-.31,2.97-.94,1.09-1.44,1.09-2.42c0-.77-.21-1.4-.64-1.89-.43-.48-.96-.85-1.6-1.1-.64-.25-1.5-.52-2.58-.81-1.33-.35-2.4-.7-3.21-1.04-.8-.35-1.49-.89-2.06-1.64-.57-.74-.86-1.75-.86-3,0-1.1.28-2.08.84-2.93.56-.85,1.35-1.51,2.37-1.97,1.02-.46,2.18-.7,3.5-.7,1.9,0,3.45.47,4.66,1.42,1.21.95,1.89,2.21,2.05,3.77h-2.9c-.1-.77-.5-1.46-1.22-2.05-.72-.59-1.67-.89-2.84-.89-1.1,0-2,.29-2.7.86-.7.57-1.04,1.37-1.04,2.39,0,.74.21,1.33.62,1.8.42.46.93.82,1.54,1.06.61.24,1.47.52,2.57.83,1.33.37,2.41.73,3.22,1.09.81.36,1.51.91,2.09,1.65.58.75.87,1.76.87,3.03,0,.99-.26,1.92-.78,2.79-.52.87-1.3,1.58-2.32,2.12s-2.23.81-3.63.81-2.53-.24-3.58-.71Z"/>
    </g>
  </g>
  <g>
    <g>
      <path class="st9" d="M111.21-429.55s-22.31,8.2-22.31,17.3-2.73,54.41,9.11,77.17c11.84,22.76,26.86,35.81,28.68,36.72s22.11-7.53,26.93-9.77c5.51-2.56,7.9-4.19,7.9-4.19,0,0-41.32-21.5-46.37-44.48-4.1-18.67-3.94-72.75-3.94-72.75Z"/>
      <path class="st10" d="M120.31-440.94v63.06c0,9.11,2.73,15.02,8.65,20.26,5.92,5.24,38.02,28.91,38.02,28.91,0,0,1.28,1.54,2.73-1.14.88-1.61,4.62-9.21,4.1-13.66s-4.33-6.6-8.65-9.33c-4.33-2.73-20.94-12.07-21.63-23.9-.68-11.84-.91-71.71-.91-71.71l-22.31,7.51Z"/>
      <path class="st7" d="M151.5-457.78c-.06,18.95,0,69.89,0,75.12s2.96,13.43,12.07,20.03c9.11,6.6,25.04,14.34,25.04,30.5s-16.5,24.74-29.59,31.87c-12.03,6.55-21.63,10.24-21.63,10.24l25.61,15.48s28.34-11.84,42.46-28.91c14.11-17.07,14.57-33.24,9.79-46.67-4.78-13.43-27.77-25.27-33.24-31.87-5.46-6.6-6.83-6.6-6.83-28.91s0-35.2,0-46.89c0-3.8-5.01-9.56-11.84-9.56s-11.83,5.76-11.84,9.56Z"/>
      <path class="st2" d="M183.6-448.45v35.74c0,3.19.68,8.42,7.51,12.52,6.83,4.1,29.99,20.26,36.65,28,6.18,7.18,8.2,13.89,8.2,13.89,0,0,3.19-40.98,2.28-49.17-.91-8.2-.91-11.61-6.6-14.34s-16.62-7.74-16.62-7.74v17.98c0,2.28-1.43,1.14-4.02-.46-2.59-1.59-5.55-3.41-5.55-7.97v-22.54l-21.85-5.92Z"/>
    </g>
    <text class="st5" transform="translate(261.74 -352.54)"><tspan x="0" y="0">INFLASYS</tspan></text>
    <text class="st8" transform="translate(265.89 -304)"><tspan x="0" y="0">ENGINEERING AIR SYSTEMS</tspan></text>
  </g>
</svg>